<svg xmlns="http://www.w3.org/2000/svg" version="1.1" xmlns:xlink="http://www.w3.org/1999/xlink" xmlns:svgjs="http://svgjs.dev/svgjs" width="1500" height="1500" viewBox="0 0 1500 1500"><rect width="1500" height="1500" fill="#000000"></rect><g transform="matrix(0.6666666666666666,0,0,0.6666666666666666,250,250)"><svg viewBox="0 0 280 280" data-background-color="#89939e" preserveAspectRatio="xMidYMid meet" height="1500" width="1500" xmlns="http://www.w3.org/2000/svg" xmlns:xlink="http://www.w3.org/1999/xlink"><g id="tight-bounds" transform="matrix(1,0,0,1,0,0)"><svg viewBox="0 0 280 280" height="280" width="280"><g><svg viewBox="0 0 280 280" height="280" width="280"><g><svg viewBox="0 0 280 280" height="280" width="280"><g id="textblocktransform"><svg viewBox="0 0 280 280" height="280" width="280" id="textblock"><g><svg viewBox="0 0 280 280" height="280" width="280"><g transform="matrix(1,0,0,1,57.50420886156945,57.50420886156945)"><svg viewBox="0 0 164.9915822768611 164.9915822768611" height="164.9915822768611" width="164.9915822768611"><g id="icon-0"><circle r="82" cx="82.49579113843055" cy="82.49579113843055" fill="#ffffff" data-fill-palette-color="accent"></circle><svg xmlns="http://www.w3.org/2000/svg" viewBox="7.98460307090319 3.9060155915373898 84.04503087326229 92.20578304456623" x="24.74873734152917" y="24.748737341529164" height="115.49410759380275" width="115.49410759380275" class="icon-jxe-0" data-fill-palette-color="quaternary" id="jxe-0"><g data-name="Layer 2" fill="#89939e" data-fill-palette-color="quaternary"><path d="M83.991 48.863A16.002 16.002 0 1 0 65.762 22.707 16.003 16.003 0 1 0 34.249 22.707 16.002 16.002 0 1 0 18.47 50.007 16.003 16.003 0 1 0 34.25 77.308 16.003 16.003 0 1 0 65.762 77.308 16 16 0 0 0 67.989 78.868L68.49 78.004 67.99 78.869A16.003 16.003 0 1 0 81.54 50.007 16 16 0 0 0 83.991 48.863M34.248 52.706A16 16 0 0 0 29.566 50.007 16 16 0 0 0 34.248 47.31 15 15 0 0 0 34.248 52.706M39.792 62.324A16 16 0 0 0 44.48 65.01 16 16 0 0 0 39.788 67.7 15.5 15.5 0 0 0 39.792 62.323M40.104 59.909A14.003 14.003 0 1 1 50.004 64.009 13.95 13.95 0 0 1 40.105 59.91M39.792 37.69A15.5 15.5 0 0 0 39.788 32.316 16 16 0 0 0 44.48 35.005 16 16 0 0 0 39.792 37.69M55.53 35.005A16 16 0 0 0 60.223 32.315 15.5 15.5 0 0 0 60.219 37.692 16 16 0 0 0 55.529 35.005M60.219 62.324A15.5 15.5 0 0 0 60.223 67.699 16 16 0 0 0 55.53 65.009 16 16 0 0 0 60.219 62.325M66.008 50.008A16 16 0 0 0 65.763 47.308 16 16 0 0 0 70.445 50.009 16 16 0 0 0 65.763 52.705 16 16 0 0 0 66.008 50.008M40.104 10.1A14.003 14.003 0 1 1 36.003 20.003 13.95 13.95 0 0 1 40.104 10.1M17.02 47.131A14.001 14.001 0 1 1 24.079 49.007L24.007 49.005 23.932 49.007A13.9 13.9 0 0 1 17.019 47.131M31.02 77.137A14.003 14.003 0 1 1 23.931 51.007L24.007 51.01 24.08 51.007A14.002 14.002 0 0 1 31.02 77.137M59.907 89.913A14.002 14.002 0 1 1 64.007 80.013 13.96 13.96 0 0 1 59.908 89.913M82.99 52.883A14.002 14.002 0 1 1 68.99 77.138 14.003 14.003 0 0 1 75.931 51.007L76.004 51.01 76.079 51.007A13.93 13.93 0 0 1 82.99 52.884M82.991 47.132A13.9 13.9 0 0 1 76.08 49.007L76.004 49.005 75.931 49.007A14.008 14.008 0 1 1 82.99 47.131L83.491 47.997Z" fill="#000000" data-fill-palette-color="quaternary"></path><path d="M75.557 57.102L66.282 73.169H85.698L75.99 56.352ZM68.014 72.169L75.99 58.352 83.966 72.169Z" fill="#000000" data-fill-palette-color="quaternary"></path><path d="M32.176 39.713V30.296L24.022 25.586 23.771 25.73 15.864 30.296 15.866 39.713 24.021 44.424ZM24.02 34.395L17.393 30.568 24.021 26.74 30.65 30.568ZM24.521 42.98V35.261L31.177 31.418 31.176 39.136ZM16.864 31.418L23.521 35.26V42.981L16.866 39.135Z" fill="#000000" data-fill-palette-color="quaternary"></path><path d="M32.173 69.401V60.305L24.303 55.76 24.231 55.72 24.017 55.595 23.795 55.724 23.756 55.746 15.861 60.306 15.863 69.722 24.018 74.433 32.173 69.724zM31.173 67.55L25.399 57.549 31.173 60.881ZM30.813 68.927H17.232L24.022 57.163ZM22.65 57.54L16.863 67.565 16.86 60.882ZM18.215 69.927H29.82L24.018 73.279Z" fill="#000000" data-fill-palette-color="quaternary"></path><path d="M54.961 73.453L53.203 72.44H46.803L45.047 73.457 41.847 79 41.849 81.029 45.049 86.57 46.808 87.584H53.208L54.963 86.568 58.164 81.025 58.161 78.995ZM57.073 79.11L54.954 82.292 50.504 79.723V74.587L54.319 74.338ZM52.763 86.584H47.252L45.556 83.158 50.005 80.589 54.455 83.159ZM50.005 73.617L47.254 73.44H52.72ZM45.69 74.342L49.505 74.587V79.723L45.055 82.292 42.936 79.115ZM42.96 80.952L44.466 83.21 45.685 85.672ZM54.34 85.649L55.544 83.21 57.074 80.912Z" fill="#000000" data-fill-palette-color="quaternary"></path><path d="M84.147 30.296L75.992 25.586 75.742 25.73 67.835 30.296 67.837 39.713 75.992 44.424 84.146 39.714ZM83.147 38.56L80.85 37.233 83.147 32.685ZM71.82 36.379L69.125 31.04 75.095 30.706ZM75.991 31.155L79.324 36.93H72.657ZM79.266 37.93L75.99 42.933 72.716 37.93ZM76.886 30.706L82.856 31.041 80.162 36.38ZM76.491 29.682V27.03L81.58 29.97ZM75.491 29.682L70.403 29.969 75.492 27.03ZM71.131 37.232L68.838 38.558 68.835 32.685ZM71.632 38.1L74.421 42.362 69.336 39.424ZM80.35 38.099L82.646 39.425 77.558 42.365Z" fill="#000000" data-fill-palette-color="quaternary"></path><path d="M50.005 29.345A9.342 9.342 0 1 0 40.663 20.003 9.34 9.34 0 0 0 50.005 29.345M41.804 21.497C41.944 21.578 42.073 21.664 42.234 21.739A16.1 16.1 0 0 0 47.172 22.843 21 21 0 0 0 47.775 26.39 8 8 0 0 0 48.495 28.2 8.31 8.31 0 0 1 41.804 21.497M55.904 25.9A8.3 8.3 0 0 1 50.004 28.345 0.35 0.35 0 0 1 49.803 28.262 2.4 2.4 0 0 1 49.177 27.355 15 15 0 0 1 48.177 22.918 32 32 0 0 0 50.005 22.977 24.7 24.7 0 0 0 56.392 22.233 8 8 0 0 0 58.203 21.513 8.3 8.3 0 0 1 55.903 25.9M55.904 14.104A8.3 8.3 0 0 1 58.347 20.003 0.35 0.35 0 0 1 58.263 20.206 2.4 2.4 0 0 1 57.358 20.83 19.6 19.6 0 0 1 50.005 21.977C49.347 21.977 48.709 21.954 48.095 21.916A30 30 0 0 1 48.03 20.003 23.8 23.8 0 0 1 48.737 13.885 6.5 6.5 0 0 1 49.46 12.132 1.5 1.5 0 0 1 49.802 11.744 0.35 0.35 0 0 1 50.005 11.661 8.3 8.3 0 0 1 55.904 14.104M44.106 14.104A8.3 8.3 0 0 1 48.511 11.802C48.43 11.942 48.343 12.07 48.268 12.232A20.4 20.4 0 0 0 47.031 20.002C47.031 20.63 47.05 21.243 47.084 21.833A19 19 0 0 1 43.888 21.27 6.5 6.5 0 0 1 42.134 20.548 1.5 1.5 0 0 1 41.746 20.206 0.35 0.35 0 0 1 41.663 20.003 8.3 8.3 0 0 1 44.106 14.104" fill="#000000" data-fill-palette-color="quaternary"></path></g></svg></g></svg></g><g id="text-0"><path d="M9.646 80.168l3.67 1.29-2.605 7.408c1.157 0.465 2.465 0.954 3.924 1.467 1.459 0.513 3.212 1.129 5.259 1.849v0c1.498 0.527 2.854 1.003 4.067 1.43 1.207 0.424 2.339 0.815 3.396 1.172 1.05 0.355 2.052 0.693 3.006 1.013 0.954 0.321 1.922 0.64 2.907 0.957v0l-1.859 5.287c-1.192-0.448-2.236-0.851-3.133-1.21-0.897-0.359-1.834-0.725-2.813-1.098-0.975-0.364-2.096-0.784-3.366-1.259-1.263-0.473-2.856-1.048-4.78-1.724v0c-1.395-0.49-2.779-0.977-4.154-1.461-1.375-0.483-2.782-0.949-4.221-1.397v0l-2.604 7.409-3.67-1.291z" fill="#ffffff" data-fill-palette-color="primary"></path><path d="M69.462 47.209v0c-1.313 1.031-2.719 1.413-4.217 1.145-1.504-0.264-2.82-1.114-3.948-2.552v0c-1.175-1.496-1.679-3.036-1.514-4.619 0.176-1.582 0.99-2.944 2.444-4.086v0c0.603-0.473 1.274-0.865 2.013-1.176 0.734-0.307 1.463-0.492 2.187-0.556v0l-1.376-1.751c-0.769-0.98-1.497-1.518-2.182-1.615-0.69-0.102-1.492 0.206-2.407 0.924v0c-0.624 0.49-1.22 1.089-1.787 1.795-0.577 0.706-0.984 1.334-1.221 1.886v0l-3.321-2.235c0.215-0.369 0.49-0.789 0.824-1.26 0.339-0.466 0.727-0.936 1.164-1.41 0.433-0.479 0.891-0.948 1.375-1.407 0.474-0.46 0.932-0.863 1.374-1.209v0c3.66-2.874 6.895-2.522 9.706 1.058v0c0.245 0.312 0.588 0.782 1.029 1.41 0.446 0.624 0.911 1.277 1.395 1.959 0.483 0.682 0.929 1.316 1.336 1.901 0.411 0.59 0.706 0.999 0.883 1.225v0c0.376 0.479 0.722 0.764 1.038 0.856 0.31 0.096 0.662-0.011 1.054-0.32v0c0.269-0.211 0.547-0.5 0.835-0.864v0l1.858 3.396c-0.253 0.364-0.497 0.686-0.73 0.965-0.229 0.284-0.489 0.541-0.78 0.769v0c-0.77 0.604-1.582 0.899-2.438 0.884-0.856-0.015-1.646-0.378-2.369-1.089v0c0.22 1.133 0.136 2.229-0.25 3.289-0.38 1.056-1.039 1.951-1.975 2.687zM68.713 43.163v0c0.667-0.524 1.047-1.21 1.139-2.056 0.092-0.847-0.149-1.636-0.724-2.368v0c-0.49-0.624-1.07-0.974-1.738-1.05-0.673-0.081-1.34 0.139-2.002 0.659v0c-0.689 0.541-1.07 1.175-1.143 1.902-0.063 0.728 0.19 1.456 0.761 2.182v0c0.541 0.689 1.142 1.1 1.804 1.234 0.666 0.139 1.3-0.029 1.903-0.503z" fill="#ffffff" data-fill-palette-color="primary"></path><path d="M156.131 19.636l-5.526 1.143c-0.206-0.602-0.343-1.258-0.41-1.968-0.06-0.71-0.099-1.332-0.118-1.865v0c-0.026-0.739-0.037-1.498-0.03-2.279 0.013-0.781 0.027-1.538 0.041-2.272 0.015-0.726 0.031-1.415 0.05-2.066 0.011-0.644 0.008-1.206-0.01-1.685v0c-0.056-1.559-0.351-2.62-0.884-3.183-0.534-0.563-1.266-0.828-2.196-0.794v0c-0.684 0.025-1.302 0.153-1.856 0.385-0.546 0.232-1.04 0.513-1.479 0.844v0c0.101 0.524 0.162 1.09 0.184 1.698v0c0.013 0.369 0.026 0.913 0.038 1.632 0.012 0.712 0.019 1.472 0.02 2.28 0.002 0.808 0.012 1.581 0.032 2.32 0.013 0.746 0.027 1.317 0.041 1.714v0c0.031 0.869 0.112 1.704 0.244 2.508 0.138 0.803 0.374 1.466 0.708 1.988v0l-5.557 1.144c-0.206-0.602-0.343-1.258-0.41-1.968-0.067-0.71-0.109-1.331-0.128-1.865v0c-0.026-0.739-0.033-1.498-0.02-2.279 0.013-0.781 0.024-1.538 0.031-2.271 0.015-0.726 0.031-1.415 0.049-2.067 0.018-0.644 0.018-1.206 0.002-1.685v0c-0.056-1.559-0.354-2.62-0.895-3.182-0.534-0.563-1.262-0.828-2.186-0.795v0c-0.691 0.025-1.316 0.16-1.875 0.406-0.56 0.239-1.06 0.528-1.5 0.865v0c0.074 0.525 0.121 1.091 0.143 1.7 0.022 0.609 0.047 1.323 0.077 2.144v0c0.044 1.217 0.083 2.315 0.118 3.293 0.035 0.978 0.075 1.891 0.119 2.739 0.044 0.848 0.086 1.647 0.127 2.399 0.034 0.752 0.079 1.524 0.135 2.316v0l-5.396 0.194c0.005-0.637 0.006-1.353 0.005-2.147-0.001-0.794 0.003-1.633 0.012-2.517 0.009-0.891 0.007-1.805-0.006-2.743-0.006-0.945-0.025-1.851-0.056-2.72v0c-0.037-1.033-0.091-1.873-0.162-2.521-0.078-0.648-0.204-1.212-0.379-1.691-0.182-0.487-0.41-0.93-0.685-1.331-0.281-0.401-0.644-0.857-1.086-1.369v0l4.531-3.377c0.554 0.747 0.999 1.399 1.334 1.955 0.342 0.556 0.602 1.136 0.781 1.739v0c0.381-0.438 0.804-0.888 1.267-1.35 0.456-0.468 0.944-0.897 1.464-1.285 0.513-0.388 1.07-0.706 1.671-0.954 0.601-0.248 1.243-0.384 1.926-0.408v0c0.985-0.035 1.921 0.208 2.81 0.731 0.895 0.523 1.58 1.477 2.055 2.864v0c0.381-0.438 0.8-0.888 1.256-1.349 0.463-0.469 0.951-0.897 1.464-1.285 0.52-0.388 1.081-0.706 1.681-0.954 0.601-0.248 1.243-0.384 1.926-0.408v0c0.663-0.024 1.311 0.073 1.942 0.289 0.631 0.217 1.192 0.594 1.684 1.132 0.499 0.537 0.909 1.275 1.23 2.215 0.328 0.94 0.518 2.125 0.569 3.554v0c0.013 0.369 0.026 0.913 0.038 1.632 0.012 0.712 0.019 1.472 0.02 2.28 0.002 0.808 0.009 1.582 0.022 2.321 0.013 0.746 0.027 1.317 0.041 1.713v0c0.031 0.869 0.116 1.704 0.254 2.508 0.132 0.803 0.368 1.466 0.708 1.988z" fill="#ffffff" data-fill-palette-color="primary"></path><path d="M217.284 20.445l4.629 2.858c-0.39 0.475-0.748 0.938-1.074 1.388-0.324 0.459-0.668 0.971-1.032 1.534-0.368 0.569-0.789 1.226-1.265 1.97-0.479 0.75-1.039 1.643-1.679 2.679v0c-0.64 1.036-1.217 1.971-1.731 2.804-0.514 0.833-0.988 1.614-1.423 2.343-0.434 0.729-0.843 1.418-1.227 2.065-0.384 0.648-0.776 1.315-1.176 2.001v0l-4.559-2.816c0.537-0.818 1.018-1.531 1.442-2.138 0.427-0.613 0.87-1.265 1.327-1.955 0.462-0.696 0.977-1.484 1.545-2.364 0.573-0.876 1.27-1.978 2.09-3.306v0c0.752-1.217 1.446-2.368 2.085-3.454 0.641-1.076 1.323-2.279 2.048-3.609zM220.577 14.878v0c0.388-0.629 0.948-1.04 1.678-1.232 0.721-0.19 1.465-0.048 2.234 0.426v0c0.652 0.403 1.101 0.945 1.347 1.628 0.246 0.683 0.168 1.35-0.235 2.003v0c-0.388 0.629-0.944 1.014-1.666 1.154-0.726 0.147-1.473-0.017-2.242-0.491v0c-0.652-0.403-1.1-0.921-1.345-1.555-0.25-0.637-0.174-1.282 0.229-1.933z" fill="#ffffff" data-fill-palette-color="primary"></path><path d="M259.934 106.077l-3.094-4.72c0.484-0.413 1.044-0.781 1.68-1.104 0.638-0.316 1.202-0.581 1.691-0.795v0c0.677-0.296 1.38-0.585 2.109-0.866 0.731-0.275 1.441-0.54 2.128-0.796 0.681-0.253 1.328-0.491 1.94-0.713 0.603-0.226 1.124-0.435 1.563-0.627v0c1.43-0.625 2.308-1.289 2.636-1.992 0.327-0.703 0.305-1.481-0.068-2.335v0c-0.274-0.627-0.621-1.155-1.04-1.584-0.416-0.423-0.859-0.778-1.328-1.066v0c-0.45 0.286-0.954 0.551-1.512 0.795v0c-0.339 0.148-0.84 0.36-1.504 0.635-0.658 0.272-1.362 0.558-2.113 0.856-0.751 0.298-1.466 0.592-2.146 0.882-0.689 0.286-1.215 0.509-1.579 0.668v0c-0.796 0.348-1.544 0.731-2.243 1.148-0.696 0.424-1.226 0.887-1.589 1.389v0l-3.106-4.748c0.484-0.413 1.044-0.781 1.68-1.104 0.636-0.323 1.198-0.591 1.687-0.804v0c0.677-0.296 1.381-0.581 2.113-0.856 0.731-0.275 1.439-0.543 2.124-0.805 0.681-0.253 1.328-0.491 1.94-0.714 0.606-0.22 1.128-0.426 1.567-0.618v0c1.43-0.625 2.307-1.292 2.632-2.001 0.327-0.703 0.306-1.478-0.064-2.325v0c-0.277-0.633-0.632-1.165-1.067-1.595-0.428-0.433-0.88-0.792-1.355-1.077v0c-0.461 0.261-0.97 0.514-1.529 0.758-0.558 0.244-1.213 0.53-1.966 0.859v0c-1.116 0.488-2.123 0.928-3.019 1.32-0.897 0.392-1.731 0.764-2.503 1.116-0.772 0.352-1.5 0.686-2.185 1-0.687 0.308-1.389 0.633-2.105 0.976v0l-2.162-4.948c0.594-0.23 1.26-0.491 1.998-0.784 0.738-0.293 1.52-0.597 2.346-0.913 0.832-0.319 1.681-0.656 2.548-1.013 0.876-0.353 1.713-0.704 2.509-1.052v0c0.947-0.414 1.709-0.773 2.285-1.077 0.574-0.311 1.052-0.635 1.434-0.974 0.386-0.348 0.715-0.723 0.987-1.126 0.269-0.409 0.56-0.913 0.873-1.513v0l4.807 2.974c-0.491 0.79-0.934 1.443-1.329 1.959-0.392 0.522-0.835 0.977-1.33 1.366v0c0.548 0.194 1.121 0.421 1.721 0.681 0.603 0.252 1.181 0.548 1.733 0.89 0.55 0.335 1.05 0.736 1.501 1.203 0.451 0.468 0.813 1.015 1.087 1.643v0c0.395 0.903 0.512 1.864 0.352 2.882-0.157 1.025-0.793 2.012-1.909 2.962v0c0.548 0.194 1.12 0.418 1.717 0.673 0.606 0.258 1.183 0.555 1.733 0.889 0.552 0.341 1.054 0.746 1.505 1.213 0.451 0.468 0.813 1.015 1.087 1.642v0c0.266 0.608 0.414 1.246 0.444 1.913 0.03 0.667-0.115 1.327-0.433 1.982-0.316 0.661-0.852 1.314-1.609 1.957-0.754 0.651-1.786 1.262-3.097 1.836v0c-0.339 0.148-0.84 0.36-1.503 0.634-0.658 0.272-1.362 0.558-2.113 0.857-0.751 0.298-1.468 0.589-2.151 0.872-0.689 0.286-1.215 0.509-1.579 0.668v0c-0.796 0.348-1.543 0.734-2.238 1.158-0.699 0.417-1.228 0.88-1.589 1.389z" fill="#ffffff" data-fill-palette-color="primary"></path><path d="M11.827 139.945c0-1.839 1.491-3.33 3.33-3.33 1.839 0 3.33 1.491 3.33 3.33 0 1.839-1.491 3.33-3.33 3.331-1.839 0-3.33-1.491-3.33-3.331z" fill="#ffffff" data-fill-palette-color="primary"></path><path d="M270.514 139.945c0-1.839 1.491-3.33 3.33-3.33 1.839 0 3.33 1.491 3.331 3.33 0 1.839-1.491 3.33-3.331 3.331-1.839 0-3.33-1.491-3.33-3.331z" fill="#ffffff" data-fill-palette-color="primary"></path></g><g id="text-1"><path d="M43.632 188.017l-3.708 1.308-2.646-7.503c-1.206 0.367-2.548 0.811-4.025 1.332-1.471 0.519-3.243 1.144-5.315 1.875v0c-1.517 0.535-2.885 1.017-4.105 1.447-1.226 0.432-2.366 0.842-3.42 1.228-1.054 0.386-2.059 0.755-3.017 1.107-0.957 0.352-1.922 0.714-2.893 1.086v0l-1.881-5.334c1.222-0.402 2.299-0.745 3.229-1.03 0.937-0.287 1.908-0.597 2.915-0.93 1.003-0.325 2.151-0.701 3.445-1.128 1.3-0.429 2.921-0.987 4.864-1.671v0c1.413-0.498 2.814-0.992 4.201-1.482 1.388-0.489 2.792-1.014 4.213-1.573v0l-2.642-7.493 3.707-1.307z" fill="#ffffff" data-fill-palette-color="primary"></path><path d="M56.519 249.101v0c-1.324-1.04-2.037-2.331-2.14-3.873-0.097-1.538 0.425-3.034 1.567-4.487v0c1.192-1.518 2.584-2.382 4.177-2.593 1.593-0.211 3.126 0.263 4.601 1.421v0c0.608 0.478 1.153 1.041 1.636 1.69 0.473 0.65 0.829 1.321 1.068 2.013v0l1.389-1.768c0.778-0.99 1.135-1.832 1.07-2.526-0.069-0.698-0.567-1.411-1.492-2.138v0c-0.63-0.495-1.358-0.941-2.186-1.339-0.832-0.392-1.549-0.638-2.15-0.736v0l1.407-3.802c0.409 0.121 0.885 0.291 1.428 0.508 0.539 0.223 1.095 0.49 1.668 0.801 0.569 0.317 1.139 0.655 1.709 1.016 0.57 0.36 1.075 0.714 1.516 1.06v0c3.703 2.908 4.132 6.173 1.287 9.796v0c-0.245 0.312-0.625 0.762-1.139 1.35-0.51 0.583-1.041 1.192-1.593 1.829-0.552 0.637-1.066 1.23-1.541 1.779-0.476 0.54-0.805 0.925-0.987 1.157v0c-0.38 0.484-0.583 0.891-0.606 1.221-0.02 0.324 0.172 0.645 0.576 0.961v0c0.274 0.216 0.623 0.42 1.046 0.613v0l-2.878 2.634c-0.424-0.159-0.803-0.318-1.14-0.477-0.332-0.165-0.643-0.361-0.933-0.59v0c-0.78-0.613-1.265-1.342-1.454-2.186-0.189-0.845-0.02-1.708 0.507-2.591v0c-1.067 0.494-2.165 0.679-3.296 0.557-1.131-0.122-2.17-0.556-3.117-1.3zM60.319 247.387v0c0.673 0.528 1.436 0.736 2.29 0.624 0.854-0.112 1.571-0.537 2.15-1.274v0c0.495-0.63 0.701-1.281 0.621-1.954-0.082-0.682-0.459-1.288-1.132-1.816v0c-0.694-0.545-1.407-0.762-2.14-0.649-0.733 0.103-1.39 0.523-1.969 1.26v0c-0.545 0.694-0.804 1.383-0.775 2.067 0.023 0.68 0.342 1.26 0.955 1.742z" fill="#ffffff" data-fill-palette-color="primary"></path><path d="M155.569 279.239l-5.647 0.761c-0.169-0.622-0.261-1.297-0.276-2.023-0.008-0.719-0.003-1.346 0.017-1.879v0c0.027-0.752 0.072-1.521 0.135-2.307 0.07-0.792 0.139-1.553 0.206-2.283 0.068-0.737 0.134-1.43 0.199-2.078 0.065-0.655 0.106-1.225 0.124-1.711v0c0.057-1.573-0.167-2.663-0.673-3.27-0.498-0.607-1.216-0.927-2.153-0.962v0c-0.691-0.025-1.32 0.058-1.889 0.25-0.575 0.191-1.095 0.44-1.557 0.745v0c0.063 0.536 0.083 1.112 0.06 1.728v0c-0.014 0.376-0.04 0.926-0.08 1.651-0.04 0.718-0.088 1.483-0.145 2.295-0.057 0.82-0.106 1.602-0.147 2.347-0.041 0.752-0.069 1.326-0.083 1.723v0c-0.032 0.882-0.008 1.736 0.072 2.56 0.073 0.818 0.261 1.499 0.563 2.044v0l-5.688 0.76c-0.162-0.622-0.251-1.297-0.265-2.023-0.015-0.72-0.013-1.346 0.006-1.88v0c0.027-0.752 0.076-1.521 0.145-2.306 0.07-0.792 0.135-1.553 0.196-2.283 0.068-0.737 0.134-1.43 0.199-2.078 0.065-0.655 0.106-1.225 0.124-1.711v0c0.057-1.573-0.164-2.663-0.662-3.27-0.498-0.607-1.216-0.927-2.153-0.962v0c-0.698-0.025-1.338 0.064-1.921 0.27-0.583 0.205-1.109 0.46-1.579 0.764v0c0.035 0.535 0.042 1.111 0.02 1.726-0.022 0.616-0.049 1.337-0.079 2.165v0c-0.045 1.231-0.085 2.342-0.121 3.334-0.036 0.992-0.063 1.915-0.08 2.77-0.017 0.855-0.033 1.663-0.046 2.423-0.014 0.766-0.022 1.55-0.024 2.351v0l-5.457-0.198c0.051-0.642 0.104-1.362 0.16-2.161 0.056-0.799 0.121-1.646 0.195-2.541 0.074-0.894 0.141-1.816 0.203-2.766 0.055-0.95 0.099-1.866 0.131-2.748v0c0.038-1.046 0.045-1.895 0.02-2.546-0.031-0.659-0.119-1.24-0.265-1.746-0.139-0.498-0.335-0.957-0.587-1.377-0.252-0.427-0.583-0.915-0.995-1.464v0l4.817-3.082c0.505 0.792 0.908 1.481 1.208 2.068 0.3 0.593 0.518 1.197 0.654 1.811v0c0.419-0.409 0.876-0.834 1.371-1.275 0.502-0.434 1.026-0.829 1.574-1.186 0.547-0.357 1.132-0.637 1.756-0.84 0.624-0.203 1.281-0.293 1.972-0.268v0c0.992 0.036 1.918 0.35 2.78 0.943 0.862 0.593 1.483 1.605 1.862 3.036v0c0.412-0.41 0.869-0.835 1.371-1.275 0.495-0.434 1.016-0.829 1.564-1.186 0.554-0.357 1.143-0.636 1.766-0.84 0.624-0.203 1.281-0.293 1.972-0.267v0c0.67 0.024 1.316 0.168 1.936 0.429 0.621 0.262 1.16 0.682 1.618 1.261 0.458 0.585 0.817 1.362 1.076 2.329 0.259 0.975 0.362 2.184 0.31 3.627v0c-0.014 0.376-0.037 0.927-0.07 1.652-0.04 0.718-0.088 1.483-0.145 2.295-0.057 0.82-0.106 1.602-0.147 2.347-0.041 0.752-0.069 1.326-0.083 1.723v0c-0.032 0.882-0.012 1.736 0.062 2.56 0.08 0.818 0.271 1.499 0.573 2.044z" fill="#ffffff" data-fill-palette-color="primary"></path><path d="M206.677 242.533l4.676-2.88c0.253 0.567 0.512 1.099 0.777 1.595 0.259 0.499 0.563 1.044 0.91 1.634 0.344 0.584 0.745 1.261 1.204 2.031 0.459 0.77 1.011 1.68 1.656 2.729v0c0.646 1.049 1.229 1.996 1.75 2.841 0.52 0.845 1.011 1.628 1.471 2.349 0.46 0.721 0.895 1.402 1.306 2.041 0.414 0.645 0.842 1.302 1.285 1.969v0l-4.615 2.843c-0.497-0.859-0.924-1.617-1.28-2.274-0.366-0.659-0.758-1.354-1.176-2.085-0.418-0.731-0.892-1.552-1.421-2.464-0.533-0.917-1.214-2.049-2.043-3.395v0c-0.757-1.229-1.48-2.376-2.167-3.44-0.691-1.069-1.469-2.234-2.333-3.494zM203.143 237.031v0c-0.395-0.641-0.514-1.331-0.359-2.07 0.156-0.739 0.621-1.347 1.396-1.825v0c0.664-0.409 1.36-0.572 2.086-0.489 0.73 0.089 1.298 0.463 1.703 1.121v0c0.395 0.641 0.492 1.321 0.291 2.039-0.206 0.722-0.694 1.32-1.463 1.794v0c-0.664 0.409-1.337 0.583-2.018 0.52-0.685-0.068-1.23-0.432-1.636-1.09z" fill="#ffffff" data-fill-palette-color="primary"></path><path d="M277.33 181.487l-1.374 5.529c-0.641-0.072-1.302-0.235-1.982-0.489-0.672-0.258-1.252-0.494-1.741-0.708v0c-0.689-0.303-1.387-0.628-2.094-0.976-0.71-0.357-1.392-0.701-2.046-1.033-0.66-0.335-1.28-0.652-1.859-0.951-0.585-0.302-1.1-0.55-1.545-0.745v0c-1.441-0.633-2.537-0.826-3.287-0.581-0.748 0.24-1.31 0.789-1.688 1.647v0c-0.278 0.633-0.433 1.249-0.464 1.848-0.034 0.605 0.005 1.179 0.118 1.722v0c0.522 0.139 1.065 0.333 1.629 0.581v0c0.345 0.151 0.846 0.379 1.505 0.683 0.652 0.301 1.346 0.628 2.08 0.981 0.741 0.355 1.45 0.689 2.128 1.002 0.684 0.315 1.207 0.553 1.571 0.712v0c0.808 0.355 1.61 0.647 2.406 0.877 0.787 0.233 1.489 0.31 2.107 0.231v0l-1.39 5.566c-0.638-0.078-1.298-0.245-1.979-0.498-0.674-0.251-1.256-0.484-1.744-0.699v0c-0.689-0.303-1.386-0.631-2.09-0.985-0.71-0.357-1.394-0.698-2.051-1.024-0.66-0.335-1.28-0.652-1.858-0.951-0.585-0.302-1.1-0.55-1.545-0.746v0c-1.441-0.633-2.536-0.83-3.284-0.589-0.748 0.24-1.31 0.789-1.687 1.647v0c-0.281 0.639-0.433 1.267-0.458 1.884-0.024 0.617 0.019 1.2 0.129 1.749v0c0.511 0.165 1.048 0.371 1.612 0.619 0.564 0.248 1.225 0.538 1.983 0.87v0c1.128 0.495 2.146 0.942 3.055 1.342 0.909 0.399 1.757 0.764 2.546 1.095 0.789 0.331 1.534 0.644 2.234 0.937 0.707 0.296 1.433 0.592 2.177 0.889v0l-2.195 5c-0.578-0.284-1.228-0.599-1.951-0.946-0.722-0.347-1.485-0.72-2.289-1.118-0.804-0.398-1.636-0.801-2.497-1.208-0.863-0.401-1.698-0.779-2.506-1.135v0c-0.959-0.421-1.745-0.74-2.36-0.957-0.624-0.214-1.197-0.346-1.72-0.397-0.514-0.054-1.013-0.041-1.497 0.038-0.49 0.077-1.065 0.205-1.727 0.385v0l-1.09-5.613c0.923-0.178 1.712-0.298 2.368-0.362 0.662-0.061 1.303-0.041 1.924 0.06v0c-0.226-0.54-0.453-1.122-0.68-1.745-0.218-0.626-0.392-1.26-0.522-1.9-0.13-0.64-0.175-1.287-0.134-1.942 0.041-0.655 0.2-1.299 0.478-1.931v0c0.399-0.909 1.033-1.654 1.902-2.237 0.869-0.583 2.038-0.787 3.509-0.612v0c-0.229-0.534-0.456-1.116-0.68-1.745-0.221-0.62-0.396-1.25-0.527-1.89-0.127-0.646-0.17-1.297-0.129-1.952 0.041-0.655 0.2-1.299 0.478-1.931v0c0.27-0.614 0.641-1.161 1.113-1.641 0.472-0.48 1.062-0.827 1.768-1.04 0.713-0.21 1.567-0.257 2.563-0.142 1.002 0.119 2.164 0.468 3.486 1.049v0c0.345 0.151 0.848 0.376 1.509 0.674 0.652 0.301 1.346 0.628 2.08 0.981 0.741 0.355 1.45 0.689 2.128 1.001 0.684 0.315 1.207 0.553 1.571 0.713v0c0.808 0.355 1.609 0.651 2.402 0.886 0.79 0.227 1.494 0.301 2.112 0.221z" fill="#ffffff" data-fill-palette-color="primary"></path></g></svg></g></svg></g></svg></g><g></g></svg></g><defs></defs></svg><rect width="280" height="280" fill="none" stroke="none" visibility="hidden"></rect></g></svg></g></svg>